<?xml version="1.0" encoding="utf-8"?>
<!-- Generator: Adobe Illustrator 25.4.1, SVG Export Plug-In . SVG Version: 6.00 Build 0)  -->
<svg version="1.1" id="Layer_1" xmlns="http://www.w3.org/2000/svg" xmlns:xlink="http://www.w3.org/1999/xlink" x="0px" y="0px"
	 viewBox="0 0 576 548" style="enable-background:new 0 0 576 548;" xml:space="preserve">
<style type="text/css">
	.st0{fill:#353535;}
	.st1{fill:#CC3636;}
</style>
<path class="st0" d="M536,484.8h-51.8v-76.2c0-2.3-1.9-4.2-4.2-4.2h-56c-2.3,0-4.2,1.9-4.2,4.2v76.2h-19.6V377
	c0-2.3-1.9-4.2-4.2-4.2h-56c-2.3,0-4.2,1.9-4.2,4.2v107.8h-19.6V360.6c0-2.3-1.9-4.2-4.2-4.2h-56c-2.3,0-4.2,1.9-4.2,4.2v124.2
	h-19.6V265c0-2.3-1.9-4.2-4.2-4.2h-56c-2.3,0-4.2,1.9-4.2,4.2v219.8h-19.6V377c0-2.3-1.9-4.2-4.2-4.2H88c-2.3,0-4.2,1.9-4.2,4.2
	v107.8H64.2V94.2c0-2.3-1.9-4.2-4.2-4.2H32c-2.3,0-4.2,1.9-4.2,4.2V517c0,2.3,1.9,4.2,4.2,4.2h504c2.3,0,4.2-1.9,4.2-4.2v-28
	C540.2,486.7,538.3,484.8,536,484.8L536,484.8z M428.2,412.8h47.6v72h-47.6V412.8z M344.2,381.2h47.6v103.6h-47.6V381.2z
	 M260.2,364.8h47.6v120h-47.6V364.8z M176.2,269.2h47.6v215.6h-47.6L176.2,269.2z M92.2,381.2h47.6v103.6H92.2V381.2z M531.8,512.8
	H36.2V98.4h19.6V489c0,2.3,1.9,4.2,4.2,4.2h471.8L531.8,512.8z"/>
<g>
	<path class="st1" d="M382.5,14.2c-42.1,0-82.4,16.7-112.2,46.4c-29.8,29.8-46.5,70.1-46.5,112.2c0,42.1,16.7,82.4,46.5,112.2
		c29.8,29.8,70.1,46.5,112.2,46.5c42.1,0,82.4-16.7,112.2-46.5c29.8-29.8,46.5-70.1,46.4-112.2c-0.1-42-16.8-82.3-46.5-112.1
		C464.8,31,424.5,14.3,382.5,14.2L382.5,14.2z M382.5,323.1c-39.9,0-78.1-15.8-106.3-44c-28.2-28.2-44-66.4-44-106.2
		c0-39.9,15.8-78.1,44-106.3c28.2-28.2,66.4-44,106.2-44c39.9,0,78.1,15.8,106.2,44c28.2,28.2,44,66.4,44,106.2
		c0,39.8-15.9,78-44,106.2C460.5,307.2,422.3,323,382.5,323.1L382.5,323.1z"/>
	<path class="st1" d="M474.4,101.7c3.8,2.4,8.6,2.1,12.1-0.7c2.6-2.9,3.1-7.1,1.2-10.6c-3.2-7.6-9.2-13.6-16.8-16.8
		c-3.4-1.9-7.7-1.4-10.6,1.2c-2.8,3.4-3.1,8.3-0.7,12l-2.2,2c-4.3,3.9-14.1,12.9-21.7,19.4c-9.5-7.3-20.5-12.4-32.1-15
		c-0.9-5.1-1.6-10.2-2.1-15.4c3.7-1.3,6.8-3.6,9.2-6.7c2.3-3.1,3.7-6.8,3.9-10.7c-0.4-11.2-13.2-19.3-29.1-18.6v0
		c-6.9,0.1-13.5,2.2-19.3,5.9c-5.2,3.1-8.4,8.8-8.5,14.8c0.5,3.8,2.1,7.4,4.7,10.4c2.6,2.9,5.9,5,9.7,6c-0.1,4.6-0.5,9.3-1.1,13.9
		c-11.3,2.1-22,6.5-31.4,12.9c-4.5-2.9-8.8-6-12.9-9.3c1.4-2.9,1.9-6.1,1.5-9.2c-0.4-3.2-1.8-6.1-3.9-8.5
		c-6.7-6.6-19.2-4.3-28.4,5.1c-9.3,9.4-11.2,22-4.7,28.5c2.4,2.1,5.4,3.4,8.6,3.7c3.2,0.4,6.4-0.2,9.2-1.7c2.9,3.2,6.7,7.3,10,11.6
		h0c-8,11.2-13.1,24.2-14.7,37.9c-6.4,2.6-12.8,5-17.2,6.6h0c-2-2.6-4.7-4.6-7.7-5.7c-3.1-1.1-6.4-1.3-9.6-0.6
		c-5,1.6-8.9,5.6-10.4,10.7c-1.7,5.5-1.7,11.3,0,16.8c3.1,11.2,11.2,18.5,19.5,18.5c1.3,0,2.5-0.2,3.8-0.5c3.1-1.1,5.8-3.1,7.7-5.7
		c2-2.6,3.2-5.7,3.5-9l4.8-1.2l6.9-1.7v0c2.6,11.9,7.9,23,15.3,32.6c-6.6,8.5-15.3,18.8-19.9,24.1v0c-2.7-1.3-5.7-1.7-8.7-1.4
		c-3,0.4-5.8,1.6-8.1,3.5c-3.4,3.7-4.6,8.9-3.2,13.7c1.3,5.3,4.1,10.1,8,13.8c4.7,5,11.1,8,17.9,8.4c3.6,0.1,7-1.2,9.6-3.7
		c2-2.3,3.3-5.2,3.7-8.3c0.4-3.1-0.1-6.2-1.5-8.9c1.4-1.3,3.1-3,5.2-5c4.8-4.7,11.9-11.8,18.1-17.4h0c8.9,5.8,18.8,9.7,29.2,11.7
		c0.8,2.9,1.5,5.6,2,8.2v0c-2.6,1.3-4.8,3.3-6.2,5.8c-1.5,2.5-2.2,5.4-2.1,8.3c1,7.7,9.3,13,19.8,13l0,0c1.2,0.1,2.5,0.1,3.7,0
		c12.1-1.4,20.8-9.3,19.8-17.9c-0.5-2.8-1.9-5.5-3.9-7.5c-2-2.1-4.5-3.6-7.3-4.2v-4.7c13.9-2,27.2-7.5,38.4-16
		c1.7,1.3,3.2,2.5,4.6,3.8c-1.6,3.2-2.2,6.8-1.8,10.3c0.4,3.5,1.9,6.8,4.3,9.5c2.9,2.7,6.7,4.1,10.6,4c1.6,0,3.3-0.2,4.9-0.6
		c6.1-1.6,11.6-4.8,15.8-9.4c10.2-10.5,12.5-24.4,5.2-31.5h0c-2.8-2.3-6.1-3.7-9.7-4c-3.5-0.4-7.1,0.3-10.3,2
		c-1.3-1.5-2.6-3.1-4-4.8c7.5-11.1,12.1-23.9,13.4-37.2h22.4h0c0.9,3.2,2.6,6,5,8.3c2.4,2.2,5.4,3.7,8.7,4.2h1.4
		c9.2,0,17.2-9.2,18.4-21.8c0.7-5.7-0.4-11.4-3-16.5c-2.3-4.8-6.9-8.1-12.1-8.8c-3.3-0.1-6.5,0.8-9.4,2.4c-2.8,1.7-5.1,4.1-6.6,7.1
		l-4.9-0.6c-6.2-0.8-14.8-1.8-22.4-3.2h0c-2.6-10.3-7.2-19.9-13.5-28.4c6.1-6.7,14.3-15.2,18.4-19.4L474.4,101.7z M464.6,99.8
		c-19.3,20.1-26.3,28-27.6,31.2c-0.8,2.1,0.2,4.4,2.2,5.3c0.5,0.2,1.1,0.3,1.6,0.3c1.7,0,3.2-0.9,3.9-2.4c0.5-1,1.2-1.9,1.9-2.7
		c4.3,6.2,7.6,12.9,9.9,20.1c-1-0.3-2-0.6-3-1c-1.1-0.5-2.2-0.5-3.3,0c-1.1,0.4-1.9,1.3-2.3,2.4c-0.5,1.1-0.5,2.2,0,3.3
		c0.4,1.1,1.3,1.9,2.4,2.3c11.9,3.3,24.1,5.6,36.4,6.7l7.7,1c1.9,0.3,3.7-0.7,4.5-2.5c2.1-4.8,5.6-7.7,8.9-7.4v0
		c2.5,0.5,4.5,2.1,5.6,4.4c1.8,3.6,2.5,7.6,2,11.6c-0.8,8.1-5.6,14.6-10.6,14.2c-3.2-0.3-6.1-4-7.2-9.1c-0.4-1.9-2-3.2-3.9-3.3
		c-14.9-0.7-29.9-0.4-44.8,1.1c-2.3,0.4-3.8,2.6-3.4,4.9c0.4,2.3,2.6,3.8,4.9,3.4c3-0.5,6.1-0.8,9.2-0.9
		c-1.2,10.5-4.7,20.6-10.2,29.7c-1.9-2.7-3.8-5.6-5.6-8.6l0,0c-0.5-1-1.4-1.7-2.5-2.1c-1.1-0.3-2.2-0.2-3.2,0.4
		c-1,0.6-1.7,1.5-2,2.6s-0.1,2.3,0.4,3.2c5.1,8.9,11.1,17.1,18.1,24.6c1.3,1.5,3.4,1.8,5.1,0.8c5.6-2.9,10.5-3.2,13-0.8
		c3.4,3.3,2,12.2-5.3,19.7c-3.2,3.4-7.3,5.9-11.8,7.1c-2.6,0.9-5.5,0.4-7.7-1.2c-2.5-2.5-2.3-7.7,0.4-13v0c0.9-1.7,0.5-3.8-1-5.1
		c-7.6-6.8-16-12.7-25-17.5c-1-0.6-2.2-0.7-3.3-0.4c-1.1,0.3-2,1.1-2.6,2.1c-0.5,1-0.6,2.2-0.2,3.3c0.4,1.1,1.2,2,2.2,2.5
		c3.2,1.7,6.2,3.5,9.2,5.6c-9.3,6.3-20,10.5-31.1,12c0.2-2.1,0.4-4.2,0.8-6.3c0.4-2.3-1.1-4.5-3.4-4.9c-2.3-0.4-4.5,1.1-4.9,3.4
		c-1.3,8.1-1.7,16.4-1.2,24.6c0.1,1.9,1.6,3.5,3.5,3.9c4.3,0.8,7.6,3,7.8,5.6c0.4,3.3-4.9,7.7-12.5,8.6c-7.6,0.9-13.7-2.1-14.1-5.6
		c-0.3-2.4,2.4-5.3,6.4-7h0c1.8-0.8,2.8-2.7,2.5-4.6c-1.3-8.1-3.6-16-6.8-23.6c-0.9-2.1-3.4-3.1-5.5-2.2c-2.1,0.9-3.1,3.4-2.2,5.5
		c0,0.3,0,0.7,0.4,1.1h0c-6.8-1.8-13.3-4.5-19.3-8.1c1.1-0.9,2.2-1.7,3.5-2.4c2-1.1,2.7-3.6,1.7-5.6c-1.1-2-3.6-2.7-5.6-1.7
		c-10.9,7.8-20.9,16.7-30.1,26.4c-3.2,3.1-5.6,5.6-7.2,6.9c-1.4,1.3-1.8,3.4-0.9,5.1c2.3,4.3,2.6,8.4,0.7,10.2v0
		c-1.7,1.3-3.9,1.7-5.9,1c-7.4-2.1-13.2-8-15.3-15.4c-0.7-2-0.3-4.2,0.9-5.9c1.9-1.8,6-1.6,10.2,0.7h0c1.7,0.9,3.9,0.6,5.2-0.9
		c11.3-12.6,21.8-25.9,31.4-39.8c1.1-2.1,0.3-4.6-1.7-5.7c-2.1-1.1-4.6-0.3-5.7,1.7c-0.9,1.6-2,3.2-3.1,4.8
		c-6-8.2-10.2-17.6-12.4-27.6c6.2-1.6,12.6-2.7,19-3.2c1.1,0,2.2-0.4,3-1.2c0.8-0.8,1.2-1.9,1.2-3c0-2.3-1.9-4.2-4.3-4.2
		c-12.3,1.3-24.4,3.7-36.2,7.2l-7.5,1.9c-1.9,0.4-3.2,2-3.2,3.9c0,5.2-2.5,9.2-5.6,10.1c-4.6,1.3-10.7-4.4-12.9-12.2h0
		c-1.2-3.8-1.2-7.9,0-11.8c0.6-2.5,2.3-4.6,4.7-5.6c3.1-0.9,7.2,1.4,10.1,5.6v0c1,1.6,3,2.2,4.8,1.6c14.2-4.8,28.1-10.7,41.4-17.5
		c1-0.6,1.7-1.5,2-2.6c0.3-1.1,0.1-2.3-0.5-3.3c-0.6-1-1.6-1.7-2.7-1.9s-2.3,0-3.2,0.6c-3.4,2-7,3.7-10.6,5.2
		c1.8-9.5,5.5-18.5,10.8-26.6c0.1,0.2,0.2,0.4,0.3,0.6c0.7,1.4,2.2,2.2,3.7,2.2c0.7,0,1.4-0.2,2-0.5c2-1.1,2.7-3.6,1.7-5.6
		c-4.8-7.7-10.4-14.9-16.8-21.4l-1.9-2.1c-1.3-1.4-3.4-1.8-5.2-0.8c-4.5,2.5-8.8,2.7-10.9,0.7c-2.1-2-1.5-10.2,4.8-16.8
		c6.3-6.6,13.8-7.8,16.5-5c2.7,2.7,1.8,6.4-0.6,11.2c-0.9,1.7-0.5,3.8,1,5.1c7.7,6.6,16,12.3,24.8,17.2c2,1,4.5,0.2,5.6-1.8
		c1.1-2,0.4-4.5-1.6-5.6c6.8-4.2,14.2-7.2,21.9-9c-0.4,1.8-0.7,3.6-1.2,5.6l0,0c-0.6,2.2,0.8,4.5,3,5.1c0.4,0.1,0.7,0.1,1.1,0
		c1.9,0,3.6-1.3,4.1-3.1c2.6-10.9,4-22,4.1-33.2c0-1.9-1.3-3.6-3.1-4.1c-6.6-1.7-11.2-5.6-11.2-9.6c0.3-3.2,2.1-6,4.9-7.6
		c4.4-2.8,9.4-4.3,14.6-4.4c10.6-0.4,20.1,4.5,20.3,10.5c0,4-4.1,8.2-10.5,10.4v0c-1.8,0.6-3,2.4-2.8,4.4c1,11.2,3.2,22.3,6.8,33
		c0.8,2.2,3.1,3.3,5.3,2.6c2.2-0.8,3.3-3.1,2.6-5.3c-0.3-1-0.6-1.9-0.9-2.9h0c8.3,2.3,16.1,6.1,23.1,11.2c-0.9,0.7-1.8,1.4-2.8,2
		c-1.1,0.4-1.9,1.2-2.4,2.3c-0.4,1.1-0.4,2.2,0,3.3c0.9,2.2,3.4,3.2,5.6,2.4c3.3-1.3,12.1-8.7,33.6-28.4l4.5-4
		c1.5-1.4,1.8-3.8,0.6-5.5c-0.9-1.3-1.6-2.8-1.9-4.4c3.2,0.9,6.1,2.7,8.3,5.2c2.5,2.2,4.3,5.1,5.2,8.3c-1.6-0.3-3.1-1-4.4-1.9
		c-1.8-1.2-4.2-0.9-5.6,0.8c-0.4,0.6-2.6,2.9-5.6,6L464.6,99.8z"/>
	<g>
		<path class="st1" d="M365.3,156.2c4.4-0.1,8.6-1.2,12.5-3.2c4.7-2.2,8.7-5.8,11.5-10.2c2.9-4,3.3-9.3,1.1-13.7
			c-2.2-4.4-6.6-7.3-11.6-7.4c-5.2-0.5-10.5,0.5-15.2,2.9c-11.2,5.6-16.8,16-12.7,24c2.3,4.3,6.6,7.1,11.4,7.6
			C363.3,156.1,364.3,156.2,365.3,156.2L365.3,156.2z M358.5,145c-1.6-3.2,1.7-9.2,8.9-12.8c2.7-1.4,5.7-2.1,8.7-2.2h1.7
			c2,0.1,3.9,1.2,5.1,2.9c0.6,1.9,0.3,4-0.9,5.6c-1.9,3.1-4.7,5.5-8,7c-3.2,1.7-6.8,2.4-10.4,2.1c-2,0-3.9-1-5.1-2.7L358.5,145z"/>
		<path class="st1" d="M378.9,191.2c-10.4,0-18.5,6-18.5,13.7s8.1,13.6,18.5,13.6c10.4,0,18.5-6,18.5-13.6
			C397.4,197.2,389.3,191.2,378.9,191.2z M378.9,210.1c-5.6,0-10.1-2.8-10.1-5.2s4.4-5.3,10.1-5.3c5.7,0,10.1,2.8,10.1,5.3
			S384.8,210.1,378.9,210.1z"/>
		<path class="st1" d="M422.5,152.4c-10.5-4.1-21-1.3-24,6.3c-3,7.6,2.8,16.8,13.3,21c3.1,1.2,6.3,1.9,9.6,1.9
			c1.4,0,2.9-0.2,4.3-0.4c4.5-0.7,8.3-3.6,10.1-7.7C438.8,165.8,433,156.5,422.5,152.4L422.5,152.4z M428.1,170.3
			c-0.8,1.5-2.3,2.5-4,2.6c-3.1,0.5-6.2,0.1-9.1-1.1c-6.2-2.5-9.6-7.3-8.6-10.1c0.7-1.7,3.2-2.9,6.6-2.9v0c2.3,0,4.5,0.5,6.6,1.3
			c6,2.5,9.4,7.3,8.3,10.1L428.1,170.3z"/>
	</g>
</g>
</svg>
