<svg width="45" height="46" viewBox="0 0 45 46" fill="none" xmlns="http://www.w3.org/2000/svg">
<path d="M22.9605 6.38025C16.103 6.37621 9.91875 10.5045 7.29265 16.8391C4.66655 23.1738 6.11608 30.4668 10.965 35.3157C15.814 40.1647 23.1069 41.6142 29.4416 38.9881C35.7763 36.362 39.9045 30.1777 39.9005 23.3203C39.9005 18.8275 38.1157 14.5187 34.9389 11.3419C31.762 8.165 27.4533 6.38025 22.9605 6.38025ZM38.5905 23.3203C38.5889 24.2081 38.5153 25.0943 38.3705 25.9703C36.8038 24.145 35.0435 22.4953 33.1205 21.0503C33.1358 20.8973 33.1358 20.7432 33.1205 20.5903C33.1218 19.5236 32.2858 18.6436 31.2205 18.5903C30.9693 17.4037 30.6111 16.2423 30.1505 15.1203C30.0405 14.8503 29.9305 14.5803 29.8005 14.3103C30.3107 13.9325 30.6113 13.3351 30.6105 12.7003C30.6157 12.6137 30.6157 12.5268 30.6105 12.4403C31.4505 12.1303 32.3305 11.8503 33.2505 11.5903C36.6242 14.5544 38.5558 18.8294 38.5505 23.3203M22.9605 38.9603C20.8686 38.9622 18.7976 38.5439 16.8705 37.7303C16.4691 36.1889 16.2245 34.6108 16.1405 33.0203C16.0728 32.0214 16.0728 31.0191 16.1405 30.0203C16.416 30.0193 16.6884 29.9614 16.9405 29.8503C18.0837 31.0372 19.3664 32.0815 20.7605 32.9603C22.0027 33.7658 23.3106 34.4649 24.6705 35.0503C24.6653 35.1302 24.6653 35.2103 24.6705 35.2903C24.6652 35.7424 24.8132 36.1831 25.0905 36.5403C24.4405 37.3503 23.7205 38.1603 22.9605 38.9703V38.9603ZM14.5905 18.8703C16.4286 18.2394 18.3487 17.8789 20.2905 17.8003C19.2279 18.9304 18.3077 20.1864 17.5505 21.5403C16.7688 22.9528 16.1674 24.4579 15.7605 26.0203C15.6299 26.0416 15.5023 26.0786 15.3805 26.1303C14.4459 24.5733 13.7419 22.8892 13.2905 21.1303C14.0824 20.844 14.6101 20.0923 14.6105 19.2503C14.6093 19.1121 14.5925 18.9746 14.5605 18.8403M25.9005 37.1403C26.1409 37.2416 26.3996 37.2927 26.6605 37.2903C27.3405 37.2891 27.9733 36.9426 28.3405 36.3703C29.0705 36.5903 29.8205 36.7803 30.6005 36.9603C28.6953 38.0306 26.5863 38.6881 24.4105 38.8903C24.9305 38.3103 25.4105 37.7203 25.9005 37.1403ZM27.3105 33.3903C27.1011 33.3189 26.8817 33.2818 26.6605 33.2803C26.0204 33.2786 25.4182 33.5834 25.0405 34.1003C22.3106 32.9656 19.8353 31.2961 17.7605 29.1903C18.0258 28.8426 18.1698 28.4176 18.1705 27.9803C18.1714 27.1293 17.6337 26.3711 16.8305 26.0903C17.6738 22.9401 19.3571 20.0781 21.7005 17.8103H22.2905C24.7332 18.0072 27.1125 18.687 29.2905 19.8103C29.198 20.039 29.1505 20.2835 29.1505 20.5303C29.1172 21.4724 29.7463 22.3099 30.6605 22.5403C30.5805 26.4022 29.42 30.1644 27.3105 33.4003M28.6605 14.7103H28.9105C29.5066 16.0288 29.9625 17.4064 30.2705 18.8203C30.1413 18.8908 30.0176 18.971 29.9005 19.0603C27.6813 17.8814 25.2583 17.1348 22.7605 16.8603C24.1063 15.7369 25.5758 14.7707 27.1405 13.9803C27.5193 14.4411 28.084 14.7088 28.6805 14.7103M25.6205 7.91026C28.0623 8.32882 30.3693 9.32291 32.3505 10.8103C31.6372 11.0236 30.9472 11.2536 30.2805 11.5003C29.9028 10.9966 29.31 10.7003 28.6805 10.7003C28.4229 10.6989 28.1677 10.7499 27.9305 10.8503C27.8205 10.6803 27.7005 10.5103 27.5805 10.3503C26.9654 9.49601 26.2974 8.68109 25.5805 7.91026M23.9905 7.73026C25.0048 8.71823 25.9316 9.79225 26.7605 10.9403L27.1205 11.4603C26.8331 11.8093 26.6774 12.2481 26.6805 12.7003C26.6706 12.8201 26.6706 12.9405 26.6805 13.0603C25.5714 13.6248 24.5052 14.2699 23.4905 14.9903C22.724 15.5409 21.9926 16.1387 21.3005 16.7803C19.4901 16.7438 17.6833 16.9558 15.9305 17.4103C15.3205 17.5603 14.7205 17.7403 14.1205 17.9503C13.7535 17.5377 13.2324 17.2953 12.6805 17.2803C12.6271 16.615 12.6071 15.9475 12.6205 15.2803C12.6371 13.9387 12.7642 12.6009 13.0005 11.2803C15.813 8.95605 19.352 7.69263 23.0005 7.71026C23.3505 7.71026 23.7005 7.71026 24.0505 7.71026M11.8505 12.3503C11.7292 13.299 11.6624 14.2539 11.6505 15.2103C11.6505 15.9803 11.6505 16.7503 11.7205 17.5003C11.0737 17.8494 10.6705 18.5252 10.6705 19.2603C10.6655 19.3302 10.6655 19.4003 10.6705 19.4703C9.55205 20.0558 8.47905 20.7244 7.46049 21.4703C7.85586 18.0162 9.39807 14.7944 11.8405 12.3203M7.35049 23.3203C7.35049 23.1803 7.35049 23.0403 7.35049 22.8903C8.4941 21.96 9.72287 21.1398 11.0205 20.4403C11.3226 20.8714 11.7825 21.166 12.3005 21.2603C12.7785 23.154 13.5333 24.9668 14.5405 26.6403L14.6105 26.7503C14.3303 27.0994 14.1754 27.5326 14.1705 27.9803C14.1676 28.6976 14.5492 29.3616 15.1705 29.7203C15.0903 30.8488 15.0903 31.9817 15.1705 33.1103C15.2468 34.4561 15.4307 35.7937 15.7205 37.1103C10.5791 34.4278 7.34548 29.1193 7.32049 23.3203M31.8305 36.2003C30.7305 35.9703 29.6705 35.7103 28.6605 35.4103V35.2903C28.6619 34.7959 28.4803 34.3185 28.1505 33.9503C28.9212 32.7412 29.5902 31.4701 30.1505 30.1503C31.1459 27.7362 31.6622 25.1515 31.6705 22.5403C32.055 22.453 32.4038 22.2507 32.6705 21.9603C34.6941 23.5002 36.53 25.2723 38.1405 27.2403C37.2013 30.8969 34.9752 34.0923 31.8705 36.2403" fill="white"/>
</svg>
