<svg width="45" height="46" viewBox="0 0 45 46" fill="none" xmlns="http://www.w3.org/2000/svg">
<path d="M30.5127 23.2426V15.3226H26.5527V23.2426H30.5127Z" fill="white"/>
<path d="M33.4771 19.2569V15.3169H29.5371V19.2569H33.4771Z" fill="white"/>
<path d="M36.4482 23.2348V19.2748H32.4882V23.2348H36.4482Z" fill="white"/>
<path d="M37.7388 17.8975V15.3175H35.1588V17.8975H37.7388Z" fill="white"/>
<path d="M39.894 23.2363V21.0063H37.664V23.2363H39.894Z" fill="white"/>
<path d="M12.4202 15.2888L8.64016 11.5088V15.2988L4.91016 15.3088L4.93016 20.8788L4.94016 20.9188C4.95016 20.9788 6.18016 27.2988 6.67016 29.6688C7.19016 32.1888 9.04016 34.0288 10.1502 34.0288H10.5602L10.5302 21.2288L15.3002 21.2188L15.3102 23.1188L15.3402 34.0088H15.7502C16.8602 34.0088 18.7002 32.1388 19.2002 29.5788C19.4302 28.3988 19.8402 24.9888 20.1902 23.1988L29.8502 23.2288L29.8202 15.3288L17.7302 15.2988V15.2788H16.9002V11.5088L13.1202 15.2888H12.4202Z" fill="white"/>
<path d="M21.1999 13.0388H22.2199L22.2299 14.2188V14.5288H23.9299L23.9199 13.0288H24.9499V11.5088L21.1899 11.5188L21.1999 13.0388Z" fill="white"/>
</svg>
