<svg width="25" height="26" viewBox="0 0 25 26" fill="none" xmlns="http://www.w3.org/2000/svg">
<path d="M12.5 2.84788C12.1236 2.84788 11.7594 2.86416 11.4115 2.89875C11.0636 2.93334 10.7117 2.98421 10.3597 3.05543C10.0098 3.12462 9.67 3.21212 9.34245 3.31182C9.01896 3.41153 8.69954 3.52955 8.38623 3.66181L8.36589 3.67199C8.03426 3.81443 7.71891 3.96704 7.41577 4.12983C7.1106 4.29465 6.81763 4.47168 6.5389 4.65888C6.25814 4.84812 5.98551 5.04957 5.72713 5.26323C5.46875 5.47689 5.21851 5.70276 4.97843 5.9449L4.9703 5.95304C4.73023 6.19315 4.5044 6.4414 4.29281 6.69779C4.07918 6.95825 3.87777 7.22888 3.68856 7.50969C3.50138 7.78643 3.32642 8.07944 3.16162 8.38467C2.99886 8.68786 2.84424 9.0053 2.70182 9.33494L2.69165 9.35732L2.67741 9.38581C2.54924 9.69104 2.4353 10.0044 2.33765 10.3239C2.23796 10.6474 2.15454 10.9811 2.08537 11.327C2.01416 11.6791 1.9633 12.0291 1.92871 12.3791C1.89412 12.729 1.87785 13.0912 1.87785 13.4677C1.87785 13.8441 1.89412 14.2084 1.92871 14.5563C1.9633 14.9043 2.01416 15.2563 2.08537 15.6083C2.15658 15.9583 2.24202 16.2982 2.34375 16.6258C2.44344 16.9452 2.55737 17.2627 2.68962 17.574C2.69775 17.5882 2.70386 17.6025 2.70996 17.6167C2.85034 17.9423 3.0009 18.2536 3.16366 18.5527C3.32845 18.858 3.50545 19.151 3.69059 19.4277C3.8798 19.7106 4.08122 19.9812 4.29688 20.2417C4.5044 20.494 4.72616 20.7382 4.96012 20.9722C4.97437 20.9844 4.98657 20.9966 4.99878 21.0108C5.23478 21.2469 5.47892 21.4666 5.72917 21.6742C5.98958 21.8878 6.26017 22.0893 6.54094 22.2785C6.81763 22.4657 7.1106 22.6407 7.41577 22.8056C7.71891 22.9683 8.0363 23.123 8.36589 23.2654L8.40861 23.2858C8.71786 23.416 9.0332 23.53 9.35872 23.6297C9.68018 23.7294 10.0159 23.8128 10.3597 23.882C10.7117 23.9532 11.0616 24.0041 11.4115 24.0387C11.7615 24.0733 12.1236 24.0895 12.5 24.0895C12.8764 24.0895 13.2406 24.0733 13.5885 24.0387C13.9364 24.0041 14.2883 23.9532 14.6403 23.882C14.9902 23.8108 15.33 23.7253 15.6576 23.6236C15.981 23.5239 16.3005 23.4058 16.6158 23.2715L16.6341 23.2634V23.2614C16.9657 23.1189 17.2811 22.9663 17.5842 22.8035C17.8894 22.6387 18.1824 22.4617 18.4611 22.2745C18.7419 22.0852 19.0145 21.8838 19.2729 21.6701C19.5272 21.4605 19.7713 21.2387 20.0094 21.0007C20.0216 20.9884 20.0317 20.9762 20.046 20.964C20.2799 20.73 20.4997 20.4858 20.7072 20.2356C20.9208 19.9751 21.1243 19.7045 21.3135 19.4216C21.5007 19.1449 21.6756 18.8519 21.8404 18.5466C22.0032 18.2435 22.1578 17.9281 22.3002 17.5964L22.3206 17.5516C22.4508 17.2443 22.5647 16.9289 22.6644 16.6054C22.7641 16.2819 22.8475 15.9482 22.9167 15.6022C22.9879 15.2502 23.0387 14.9002 23.0733 14.5502C23.1079 14.2002 23.1242 13.838 23.1242 13.4616C23.1242 13.0851 23.1079 12.7209 23.0733 12.3729C23.0387 12.025 22.9879 11.673 22.9167 11.3209C22.8455 10.9709 22.76 10.6311 22.6583 10.3035C22.5586 9.97998 22.4406 9.66051 22.3063 9.34511L22.2982 9.3268C22.1558 8.99512 22.0032 8.67972 21.8404 8.37653C21.6756 8.07131 21.4986 7.77829 21.3135 7.50155C21.1243 7.22074 20.9229 6.94808 20.7092 6.68965C20.5017 6.43733 20.2779 6.19112 20.0419 5.95508C20.0277 5.94287 20.0155 5.93066 20.0053 5.91845C19.7693 5.68241 19.5272 5.46265 19.2749 5.25509C19.0145 5.04143 18.7439 4.83999 18.4631 4.65075C18.1844 4.46354 17.8935 4.28854 17.5883 4.12372C17.2852 3.96094 16.9698 3.80629 16.6382 3.66588L16.5995 3.64757C16.2903 3.51734 15.9729 3.40136 15.6474 3.30165C15.3259 3.20194 14.9902 3.11851 14.6444 3.04933C14.2924 2.97811 13.9425 2.92724 13.5925 2.89265C13.2406 2.86416 12.8764 2.84788 12.5 2.84788ZM12.8866 7.31231C13.3321 7.31231 13.682 7.44051 13.9364 7.69486C14.1886 7.94922 14.3168 8.29717 14.3168 8.74687C14.3168 9.20267 14.0991 9.60557 13.6637 9.96167C13.2243 10.3157 12.7157 10.4948 12.1338 10.4948C11.6984 10.4948 11.3505 10.3727 11.084 10.1285C10.8175 9.88027 10.6852 9.56081 10.6852 9.16198C10.6852 8.65937 10.9029 8.22799 11.3342 7.85968C11.7635 7.49341 12.2823 7.31231 12.8866 7.31231ZM15.3707 19.6312H9.62931V18.6647H10.7076V12.7616H9.62931V11.9924H12.3128C12.9903 11.9924 13.6576 11.911 14.3168 11.7442V18.6647H15.3707V19.6312ZM9.99349 1.21391C10.3923 1.13455 10.8053 1.0735 11.2305 1.03281C11.6557 0.990075 12.0789 0.969727 12.5 0.969727C12.9211 0.969727 13.3443 0.990075 13.7695 1.03281C14.1947 1.0735 14.6077 1.13455 15.0065 1.21391C15.4012 1.29327 15.7959 1.39297 16.1906 1.51506C16.5731 1.63308 16.9515 1.77145 17.3258 1.93017L17.3645 1.94441L17.3767 1.94848C17.7531 2.11127 18.1193 2.2883 18.4713 2.47958C18.8192 2.66882 19.163 2.87637 19.5028 3.10427C19.8344 3.3281 20.1558 3.56618 20.4651 3.82053C20.7743 4.07489 21.0693 4.34145 21.3481 4.62429C21.6288 4.9051 21.8974 5.20015 22.1517 5.50741C22.406 5.81671 22.644 6.13618 22.8678 6.46989C23.0896 6.80157 23.2971 7.14545 23.4904 7.49952H23.4924C23.6837 7.85358 23.8627 8.21985 24.0234 8.59629C24.0275 8.60647 24.0316 8.61664 24.0356 8.62682C24.1943 8.99919 24.3327 9.37971 24.4527 9.76632C24.5768 10.1652 24.6786 10.564 24.7579 10.9648C24.8372 11.3637 24.8983 11.7767 24.939 12.202C24.9797 12.6273 25 13.0506 25 13.4718C25 13.893 24.9797 14.3162 24.9369 14.7415C24.8962 15.1668 24.8352 15.5799 24.7559 15.9787C24.6765 16.3734 24.5768 16.7682 24.4548 17.163C24.3368 17.5475 24.1964 17.9281 24.0377 18.3065L24.0295 18.3248L24.0194 18.3472C23.8566 18.7237 23.6796 19.0899 23.4884 19.442C23.2992 19.7899 23.0916 20.1338 22.8638 20.4736C22.64 20.8053 22.4019 21.1268 22.1476 21.4361C21.8933 21.7454 21.6268 22.0384 21.344 22.3192C21.0632 22.6 20.7682 22.8686 20.459 23.123C20.1497 23.3773 19.8303 23.6154 19.4987 23.8372C19.1671 24.059 18.8232 24.2666 18.4692 24.4599C18.1071 24.6552 17.7429 24.8343 17.3726 24.993C17.3625 24.9971 17.3523 25.0011 17.3401 25.0052C16.9678 25.1639 16.5873 25.3023 16.2008 25.4224C15.802 25.5465 15.4032 25.6482 15.0045 25.7276C14.6057 25.8069 14.1927 25.868 13.7675 25.9087C13.3423 25.9494 12.9191 25.9697 12.498 25.9697C12.0768 25.9697 11.6536 25.9494 11.2284 25.9087C10.8032 25.868 10.3902 25.8069 9.99146 25.7276C9.59676 25.6482 9.20207 25.5485 8.80737 25.4264C8.42285 25.3084 8.0424 25.168 7.66602 25.0093L7.62533 24.993C7.24894 24.8302 6.88273 24.6532 6.53076 24.4619C6.18286 24.2727 5.83903 24.0651 5.49927 23.8372C5.16764 23.6154 4.84619 23.3753 4.53898 23.123C4.22974 22.8686 3.93473 22.6 3.65397 22.3192C3.37321 22.0384 3.10466 21.7434 2.85034 21.4361C2.59603 21.1268 2.35799 20.8053 2.1342 20.4736C1.91243 20.142 1.70492 19.7981 1.51164 19.444C1.31429 19.0818 1.13729 18.7155 0.978597 18.3452C0.974528 18.335 0.970459 18.3248 0.96639 18.3147C0.807699 17.9423 0.669352 17.5618 0.549316 17.1752C0.425212 16.7763 0.323486 16.3755 0.244141 15.9766C0.164795 15.5778 0.10376 15.1647 0.0630697 14.7395C0.0203451 14.3162 0 13.893 0 13.4718C0 13.0506 0.0203451 12.6273 0.0630697 12.202C0.10376 11.7767 0.164795 11.3637 0.244141 10.9648C0.323486 10.5701 0.423177 10.1753 0.545247 9.78057C0.663249 9.39802 0.801595 9.01954 0.960286 8.64309L0.978597 8.59629C1.14136 8.21985 1.31836 7.85358 1.5096 7.50155C1.69881 7.15359 1.90633 6.80971 2.1342 6.46989C2.35799 6.13821 2.59603 5.81671 2.85034 5.50741C3.10466 5.19812 3.37118 4.9051 3.65397 4.62429C3.93473 4.34349 4.22974 4.07489 4.53695 3.82053C4.84619 3.56618 5.16561 3.3281 5.49927 3.10427C5.83903 2.87637 6.18286 2.66882 6.53076 2.47958L6.55721 2.46737C6.90918 2.27609 7.26522 2.10517 7.62736 1.94848C7.63753 1.94441 7.64771 1.94034 7.65788 1.93627C8.03019 1.77756 8.41065 1.63919 8.7972 1.51913C9.19393 1.39501 9.59269 1.29327 9.99349 1.21391Z" fill="#A6A6A6"/>
</svg>
